<?xml version="1.0" ?><svg viewBox="0 0 64 64" xmlns="http://www.w3.org/2000/svg"><title/><g data-name="10-ai" id="_10-ai"><path d="M63.557,38.519,58.2,34.932a26.16,26.16,0,0,0,.006-5.867l5.352-3.584a1,1,0,0,0,.367-1.213l-3.883-9.374a1,1,0,0,0-1.118-.6L52.6,15.545A26.2,26.2,0,0,0,48.453,11.4l1.252-6.324a1,1,0,0,0-.6-1.118L39.732.076A1,1,0,0,0,38.54.413L34.49,6H31.856a6.977,6.977,0,0,0-1.843-2.977A11.068,11.068,0,0,0,21.972.01h-.024C16.8.021,13.1,3.249,12.632,7.979c-2.13.077-6.78,1-8.354,7.393A11.47,11.47,0,0,0,4.61,22.6C2.346,24.075,0,26.847,0,32s2.345,7.925,4.61,9.4a11.466,11.466,0,0,0-.331,7.225c1.571,6.385,6.22,7.313,8.353,7.393C13.1,60.763,16.8,63.99,21.95,63.99c5.871,0,9.175-3.449,9.9-5.99H34.49l4.05,5.587a1,1,0,0,0,1.192.337l9.374-3.883a1,1,0,0,0,.6-1.118l-1.251-6.318A26.254,26.254,0,0,0,52.6,48.453L58.923,49.7a1,1,0,0,0,1.118-.6l3.883-9.374A1,1,0,0,0,63.557,38.519Zm-5.05,9.064-6.124-1.211a1,1,0,0,0-.99.376,24.264,24.264,0,0,1-4.644,4.65,1,1,0,0,0-.377.991l1.211,6.118L39.7,61.774,35.81,56.413A1,1,0,0,0,35,56H32V50a1,1,0,0,0-2,0v7c0,1.42-2.395,4.99-8.05,4.99-4.408,0-7.37-2.809-7.37-6.99,0-6.415,4.889-7.979,5.092-8.041a1,1,0,1,0-.565-1.918,9.956,9.956,0,0,0-6.478,9c-1.607-.055-5.15-.772-6.407-5.884A9.632,9.632,0,0,1,6.4,42.343a9.9,9.9,0,0,0,2.215.649A1.166,1.166,0,0,0,8.741,43a1,1,0,0,0,.132-1.991,8.423,8.423,0,0,1-2.5-.882C4.377,39.063,2,36.789,2,32s2.377-7.063,4.37-8.127a8.434,8.434,0,0,1,2.5-.882,1,1,0,0,0-.263-1.983,9.9,9.9,0,0,0-2.215.649,9.637,9.637,0,0,1-.174-5.808c1.258-5.112,4.8-5.828,6.408-5.884a9.957,9.957,0,0,0,6.478,8.994,1,1,0,0,0,1.238-.673,1,1,0,0,0-.668-1.244c-.208-.063-5.1-1.627-5.1-8.042,0-4.171,2.963-6.98,7.372-6.99h.021A9.1,9.1,0,0,1,28.6,4.438,4.238,4.238,0,0,1,30,7v7a1,1,0,0,0,2,0V8h3a1,1,0,0,0,.81-.413L39.7,2.226l7.888,3.267-1.213,6.125a1,1,0,0,0,.377.99A24.22,24.22,0,0,1,51.4,17.25a1,1,0,0,0,.992.377l6.118-1.21,3.256,7.859-5.183,3.47a1,1,0,0,0-.434.967,24.261,24.261,0,0,1-.006,6.571,1,1,0,0,0,.434.966l5.189,3.474Z"/><path d="M18.745,31.055A7.706,7.706,0,0,1,13.61,24a1,1,0,0,0-2,0A9.848,9.848,0,0,0,16.1,32a9.848,9.848,0,0,0-4.485,8,1,1,0,0,0,2,0,7.78,7.78,0,0,1,5.135-7.055,1,1,0,0,0,0-1.89Z"/><path d="M50,28a4,4,0,0,0-3.858,3H37V29h4a1,1,0,0,0,.707-.293l3.274-3.274A3.947,3.947,0,0,0,47,26a4,4,0,1,0-4-4,3.947,3.947,0,0,0,.567,2.019L40.586,27H37V25.414l2.707-2.707A1,1,0,0,0,40,22V18.858a4,4,0,1,0-2,0v2.728L35.586,24H32V22h2a1,1,0,0,0,0-2H32V18a1,1,0,0,0-2,0v7.716a10.751,10.751,0,0,0-6.637-3.711,1,1,0,0,0-.21,1.989,7.756,7.756,0,0,1,6.847,8,7.76,7.76,0,0,1-6.844,8.012,1,1,0,0,0,.1,1.995c.034,0,.069,0,.1-.005A10.743,10.743,0,0,0,30,38.279V46a1,1,0,0,0,2,0V44h2a1,1,0,0,0,0-2H32V40h3.586L38,42.414v2.728a4,4,0,1,0,2,0V42a1,1,0,0,0-.293-.707L37,38.586V37h3.586l2.981,2.981A3.947,3.947,0,0,0,43,42a4,4,0,1,0,4-4,3.947,3.947,0,0,0-2.019.567l-3.274-3.274A1,1,0,0,0,41,35H37V33h9.142A3.993,3.993,0,1,0,50,28Zm-3-8a2,2,0,1,1-1.412,3.415v0h0A2,2,0,0,1,47,20ZM37,15a2,2,0,1,1,2,2A2,2,0,0,1,37,15Zm4,34a2,2,0,1,1-2-2A2,2,0,0,1,41,49Zm8-7a2,2,0,1,1-3.415-1.412h0v0A2,2,0,0,1,49,42ZM32,26h3V38H32Zm18,8a2,2,0,1,1,2-2A2,2,0,0,1,50,34Z"/></g></svg>