<?xml version="1.0" ?><svg id="icons" viewBox="0 0 64 64" xmlns="http://www.w3.org/2000/svg"><defs><style>.cls-1{fill:#ff7652;}.cls-2{fill:#fff;}.cls-3,.cls-4{fill:none;stroke-miterlimit:10;stroke-width:2px;}.cls-3{stroke:#a8a0a2;}.cls-4{stroke:#524a4d;}</style></defs><title/><path class="cls-1" d="M63.85,34.92A28.26,28.26,0,0,0,64,32c0-1,0-2.13-.15-3.13l-4.28-1q-.1-.78-.27-1.56L63,23.83a31.42,31.42,0,0,0-2.06-5.67l-4.38.49c-.25-.47-.52-.92-.8-1.37l2.61-3.55A33.05,33.05,0,0,0,54.46,9.1l-4,2c-.39-.35-.8-.68-1.21-1l1.24-4.23a31.53,31.53,0,0,0-5.23-3L42.27,6c-.49-.19-1-.37-1.48-.54l-.28-4.39a31.62,31.62,0,0,0-6-1L32.79,4,32,4l-.79,0L29.45,0a31.62,31.62,0,0,0-6,1.05l-.28,4.39c-.5.17-1,.35-1.48.54l-3-3.19a31.53,31.53,0,0,0-5.23,3l1.24,4.23c-.41.33-.82.66-1.21,1l-4-2a33.05,33.05,0,0,0-3.88,4.63l2.61,3.55c-.28.45-.55.9-.8,1.37l-4.38-.49A31.42,31.42,0,0,0,1,23.83L4.7,26.27q-.17.78-.27,1.56l-4.28,1C.05,29.87,0,31,0,32a28.26,28.26,0,0,0,.15,2.92l4.28,1q.11.79.27,1.56L1,40a31.8,31.8,0,0,0,2.06,5.68l4.38-.49c.25.46.52.92.8,1.37L5.66,50.05a32,32,0,0,0,3.88,4.63l4-2c.39.35.8.69,1.21,1L13.46,58a30.84,30.84,0,0,0,5.23,3l3-3.19c.49.2,1,.37,1.48.54l.28,4.4a31.88,31.88,0,0,0,6,1.26l1.76-4.26.79,0,.79,0L34.55,64a31.88,31.88,0,0,0,6-1.26l.28-4.4c.5-.17,1-.34,1.48-.54l3,3.19a30.84,30.84,0,0,0,5.23-3L49.3,53.74c.41-.33.82-.67,1.21-1l4,2a32,32,0,0,0,3.88-4.63l-2.61-3.54c.28-.45.55-.91.8-1.37l4.38.49A31.8,31.8,0,0,0,63,40L59.3,37.51q.16-.76.27-1.56Z"/><circle class="cls-2" cx="32" cy="32" r="20"/><line class="cls-3" x1="29" x2="31" y1="28" y2="28"/><line class="cls-3" x1="33" x2="35" y1="28" y2="28"/><line class="cls-3" x1="35" x2="37" y1="32" y2="32"/><line class="cls-3" x1="31" x2="33" y1="32" y2="32"/><line class="cls-3" x1="27" x2="29" y1="32" y2="32"/><line class="cls-3" x1="33" x2="35" y1="36" y2="36"/><line class="cls-3" x1="29" x2="31" y1="36" y2="36"/><path class="cls-4" d="M18.92,27A14,14,0,0,1,46,32"/><path class="cls-4" d="M45.08,37A14,14,0,0,1,18,32"/><polyline class="cls-4" points="22 35 18 32 15 36"/><polyline class="cls-4" points="42 29 46 32 49 28"/></svg>