<?xml version="1.0" ?><svg id="Icons" viewBox="0 0 60 60" xmlns="http://www.w3.org/2000/svg"><defs><style>.cls-1{fill:#e1eeff;}.cls-2{fill:#49508e;}.cls-3{fill:#fff;}.cls-4{fill:#b1cbdd;}.cls-5{fill:#eb6374;}.cls-6{fill:#2e3360;}.cls-7{fill:#66caa4;}.cls-8{fill:#f9c84e;}</style></defs><polygon class="cls-1" points="53 9 53 35.05 33.35 43 26.65 43 7 35.05 7 9 8 8 52 8 53 9"/><path class="cls-2" d="M53,4V9H7V4a3,3,0,0,1,3-3H50A3,3,0,0,1,53,4Z"/><path class="cls-3" d="M12,6H11a1,1,0,0,1,0-2h1a1,1,0,0,1,0,2Z"/><path class="cls-3" d="M17,6H16a1,1,0,0,1,0-2h1a1,1,0,0,1,0,2Z"/><path class="cls-3" d="M22,6H21a1,1,0,0,1,0-2h1a1,1,0,0,1,0,2Z"/><path class="cls-4" d="M12,14H11a1,1,0,0,1,0-2h1a1,1,0,0,1,0,2Z"/><path class="cls-4" d="M12,18H11a1,1,0,0,1,0-2h1a1,1,0,0,1,0,2Z"/><path class="cls-5" d="M48,18H46a1,1,0,0,1,0-2h2a1,1,0,0,1,0,2Z"/><path class="cls-4" d="M12,22H11a1,1,0,0,1,0-2h1a1,1,0,0,1,0,2Z"/><path class="cls-4" d="M12,26H11a1,1,0,0,1,0-2h1a1,1,0,0,1,0,2Z"/><path class="cls-4" d="M12,30H11a1,1,0,0,1,0-2h1a1,1,0,0,1,0,2Z"/><path class="cls-6" d="M49,6H43a1,1,0,0,1,0-2h6a1,1,0,0,1,0,2Z"/><path class="cls-4" d="M16,35a1,1,0,0,1-1-1V13a1,1,0,0,1,2,0V34A1,1,0,0,1,16,35Z"/><path class="cls-7" d="M30,14H20a1,1,0,0,1,0-2H30a1,1,0,0,1,0,2Z"/><path class="cls-7" d="M32,18H22a1,1,0,0,1,0-2H32a1,1,0,0,1,0,2Z"/><path class="cls-8" d="M42,18H36a1,1,0,0,1,0-2h6a1,1,0,0,1,0,2Z"/><path class="cls-7" d="M38,22H23a1,1,0,0,1,0-2H38a1,1,0,0,1,0,2Z"/><path class="cls-7" d="M30,26H20a1,1,0,0,1,0-2H30a1,1,0,0,1,0,2Z"/><path class="cls-7" d="M32,30H22a1,1,0,0,1,0-2H32a1,1,0,0,1,0,2Z"/><path class="cls-8" d="M42,30H36a1,1,0,0,1,0-2h6a1,1,0,0,1,0,2Z"/><path class="cls-7" d="M36,34H25a1,1,0,0,1,0-2H36a1,1,0,0,1,0,2Z"/><circle class="cls-5" cx="14" cy="46" r="13"/><circle class="cls-7" cx="46" cy="46" r="13"/><path class="cls-3" d="M19.707,40.293a1,1,0,0,0-1.414,0L14,44.586,9.707,40.293a1,1,0,0,0-1.414,1.414L12.586,46,8.293,50.293a1,1,0,1,0,1.414,1.414L14,47.414l4.293,4.293a1,1,0,0,0,1.414-1.414L15.414,46l4.293-4.293A1,1,0,0,0,19.707,40.293Z"/><path class="cls-3" d="M51.573,40.181a1,1,0,0,0-1.392.246L43.864,49.45l-2.157-2.157a1,1,0,0,0-1.414,1.414l3,3A1,1,0,0,0,44,52a.844.844,0,0,0,.087,0,1,1,0,0,0,.732-.423l7-10A1,1,0,0,0,51.573,40.181Z"/></svg>