<?xml version="1.0" ?><svg id="Layer_1_1_" style="enable-background:new 0 0 64 64;" version="1.1" viewBox="0 0 64 64" xml:space="preserve" xmlns="http://www.w3.org/2000/svg" xmlns:xlink="http://www.w3.org/1999/xlink"><circle cx="8" cy="23" r="2" style="fill:#F6DB40;"/><circle cx="5" cy="32" r="2" style="fill:#F6DB40;"/><circle cx="8" cy="41" r="2" style="fill:#F6DB40;"/><circle cx="5" cy="59" r="2" style="fill:#F6DB40;"/><circle cx="16" cy="59" r="2" style="fill:#F6DB40;"/><circle cx="32" cy="59" r="2" style="fill:#F6DB40;"/><circle cx="48" cy="59" r="2" style="fill:#F6DB40;"/><circle cx="59" cy="59" r="2" style="fill:#F6DB40;"/><circle cx="56" cy="41" r="2" style="fill:#F6DB40;"/><circle cx="59" cy="32" r="2" style="fill:#F6DB40;"/><circle cx="56" cy="23" r="2" style="fill:#F6DB40;"/><circle cx="59" cy="5" r="2" style="fill:#F6DB40;"/><circle cx="48" cy="5" r="2" style="fill:#F6DB40;"/><circle cx="32" cy="5" r="2" style="fill:#F6DB40;"/><circle cx="16" cy="5" r="2" style="fill:#F6DB40;"/><circle cx="5" cy="5" r="2" style="fill:#F6DB40;"/><path d="M40,30v5c0,1.66-3.58,3-8,3s-8-1.34-8-3v-5c0,1.66,3.58,3,8,3S40,31.66,40,30z" style="fill:#F6DB40;"/><path d="M32,43c-4.42,0-8-1.34-8-3v-5c0,1.66,3.58,3,8,3s8-1.34,8-3v5C40,41.66,36.42,43,32,43z" style="fill:#F6DB40;"/><ellipse cx="32" cy="25" rx="8" ry="3" style="fill:#8360F4;"/><path d="M40,25v5c0,1.66-3.58,3-8,3s-8-1.34-8-3v-5c0,1.66,3.58,3,8,3S40,26.66,40,25z" style="fill:#F6DB40;"/><path d="M24,40c0,1.66,3.58,3,8,3s8-1.34,8-3v-5v-5v-5c0-1.66-3.58-3-8-3s-8,1.34-8,3v5v5V40z M39,15.57  l0.81-0.87c0.83,0.37,1.63,0.8,2.39,1.3c0.3,0.18,0.59,0.38,0.88,0.59l-0.92,3.05c0.8,0.66,1.54,1.4,2.2,2.2l3.05-0.92  c0.48,0.66,0.92,1.36,1.3,2.08c0.22,0.39,0.41,0.78,0.6,1.19l-2.35,2.19c0.37,0.96,0.64,1.96,0.81,3l3.13,0.73  C50.97,30.73,51,31.36,51,32s-0.03,1.27-0.1,1.89l-3.13,0.73c-0.17,1.04-0.44,2.04-0.81,3l2.34,2.19c-0.18,0.41-0.38,0.8-0.59,1.19  c-0.38,0.72-0.82,1.42-1.3,2.08l-3.05-0.92c-0.66,0.8-1.4,1.54-2.2,2.2l0.92,3.05c-0.29,0.21-0.58,0.41-0.88,0.59  c-0.76,0.5-1.56,0.93-2.39,1.31L39,48.44v-0.01l-1.38-1.47c-0.96,0.37-1.96,0.64-3,0.81l-0.73,3.13C33.27,50.97,32.64,51,32,51  s-1.27-0.03-1.89-0.1l-0.73-3.13c-1.04-0.17-2.04-0.44-3-0.81L25,48.43l-0.81,0.87c-0.83-0.37-1.63-0.8-2.39-1.3  c-0.3-0.18-0.59-0.38-0.88-0.59l0.92-3.05c-0.8-0.66-1.54-1.4-2.2-2.2l-3.05,0.92c-0.48-0.66-0.92-1.36-1.3-2.08  c-0.22-0.39-0.41-0.78-0.6-1.19l2.35-2.19c-0.37-0.96-0.64-1.96-0.81-3l-3.13-0.73C13.03,33.27,13,32.64,13,32s0.03-1.27,0.1-1.89  l3.13-0.73c0.17-1.04,0.44-2.04,0.81-3l-2.34-2.19c0.18-0.41,0.38-0.8,0.59-1.19c0.38-0.72,0.82-1.42,1.3-2.08l3.05,0.92  c0.66-0.8,1.4-1.54,2.2-2.2l-0.92-3.05c0.29-0.21,0.58-0.41,0.88-0.59c0.76-0.5,1.56-0.93,2.39-1.31L25,15.56v0.01l1.38,1.47  c0.96-0.37,1.96-0.64,3-0.81l0.73-3.13C30.73,13.03,31.36,13,32,13s1.27,0.03,1.89,0.1l0.73,3.13c1.04,0.17,2.04,0.44,3,0.81  L39,15.57z" style="fill:#71D2DF;"/><path d="M55,17c0.265,0,0.52-0.105,0.707-0.293l4-4C59.895,12.52,60,12.265,60,12V7.816  C61.161,7.402,62,6.302,62,5c0-1.654-1.346-3-3-3s-3,1.346-3,3c0,1.302,0.839,2.402,2,2.816v3.77L54.586,15H42.467  c-0.726-0.449-1.469-0.867-2.24-1.216c-0.073-0.033-0.15-0.048-0.227-0.062V9.414L43.414,6h1.77C45.598,7.161,46.698,8,48,8  c1.654,0,3-1.346,3-3s-1.346-3-3-3c-1.302,0-2.402,0.839-2.816,2H43c-0.265,0-0.52,0.105-0.707,0.293l-4,4  C38.105,8.48,38,8.735,38,9v6.17l-0.661,0.706c-0.619-0.205-1.251-0.374-1.892-0.506l-0.584-2.502  c-0.097-0.417-0.45-0.726-0.876-0.768c-0.336-0.033-0.659-0.033-0.987-0.049V7.816C34.161,7.402,35,6.302,35,5c0-1.654-1.346-3-3-3  s-3,1.346-3,3c0,1.302,0.839,2.402,2,2.816v4.235c-0.328,0.017-0.652,0.016-0.987,0.049c-0.426,0.042-0.779,0.351-0.876,0.768  l-0.584,2.502c-0.64,0.132-1.273,0.301-1.891,0.506L26,15.169V9c0-0.265-0.105-0.52-0.293-0.707l-4-4C21.52,4.105,21.265,4,21,4  h-2.184C18.402,2.839,17.302,2,16,2c-1.654,0-3,1.346-3,3s1.346,3,3,3c1.302,0,2.402-0.839,2.816-2h1.77L24,9.414v4.308  c-0.076,0.015-0.153,0.029-0.227,0.062c-0.771,0.349-1.513,0.767-2.24,1.216H9.414L6,11.586v-3.77C7.161,7.402,8,6.302,8,5  c0-1.654-1.346-3-3-3S2,3.346,2,5c0,1.302,0.839,2.402,2,2.816V12c0,0.265,0.105,0.52,0.293,0.707l4,4C8.48,16.895,8.735,17,9,17  h10.997l0.7,2.304c-0.49,0.437-0.957,0.903-1.393,1.393L16.88,19.96c-0.408-0.125-0.852,0.024-1.102,0.372  C15.391,20.87,15.03,21.427,14.697,22h-3.882C10.402,20.839,9.302,20,8,20c-1.654,0-3,1.346-3,3s1.346,3,3,3  c1.302,0,2.402-0.839,2.816-2h2.906c-0.063,0.331,0.036,0.677,0.29,0.915l1.864,1.746c-0.205,0.619-0.374,1.251-0.506,1.892  l-2.502,0.584c-0.417,0.097-0.726,0.45-0.768,0.876c-0.033,0.336-0.033,0.657-0.05,0.987H7.816C7.402,29.839,6.302,29,5,29  c-1.654,0-3,1.346-3,3s1.346,3,3,3c1.302,0,2.402-0.839,2.816-2h4.235c0.017,0.33,0.017,0.651,0.05,0.987  c0.042,0.426,0.351,0.779,0.768,0.876l2.502,0.584c0.132,0.64,0.301,1.273,0.506,1.891l-1.864,1.746  c-0.254,0.238-0.353,0.584-0.29,0.916h-2.906C10.402,38.839,9.302,38,8,38c-1.654,0-3,1.346-3,3s1.346,3,3,3  c1.302,0,2.402-0.839,2.816-2h3.882c0.332,0.572,0.692,1.129,1.08,1.667c0.25,0.347,0.69,0.497,1.103,0.372l2.424-0.736  c0.437,0.491,0.903,0.957,1.393,1.393L19.996,47H9c-0.265,0-0.52,0.105-0.707,0.293l-4,4C4.105,51.48,4,51.735,4,52v4.184  C2.839,56.598,2,57.698,2,59c0,1.654,1.346,3,3,3s3-1.346,3-3c0-1.302-0.839-2.402-2-2.816v-3.77L9.414,49h12.119  c0.726,0.448,1.468,0.867,2.24,1.216c0.073,0.033,0.15,0.048,0.227,0.063v4.307L20.586,58h-1.77c-0.414-1.161-1.514-2-2.816-2  c-1.654,0-3,1.346-3,3s1.346,3,3,3c1.302,0,2.402-0.839,2.816-2H21c0.265,0,0.52-0.105,0.707-0.293l4-4  C25.895,55.52,26,55.265,26,55v-6.17l0.661-0.706c0.619,0.205,1.251,0.374,1.892,0.506l0.584,2.502  c0.097,0.417,0.45,0.726,0.876,0.768c0.336,0.033,0.657,0.033,0.987,0.05v4.235c-1.161,0.414-2,1.514-2,2.816c0,1.654,1.346,3,3,3  s3-1.346,3-3c0-1.302-0.839-2.402-2-2.816V51.95c0.33-0.017,0.652-0.017,0.987-0.05c0.426-0.042,0.779-0.351,0.876-0.768  l0.584-2.502c0.64-0.132,1.273-0.301,1.891-0.506L38,48.831V55c0,0.265,0.105,0.52,0.293,0.707l4,4C42.48,59.895,42.735,60,43,60  h2.184c0.414,1.161,1.514,2,2.816,2c1.654,0,3-1.346,3-3s-1.346-3-3-3c-1.302,0-2.402,0.839-2.816,2h-1.77L40,54.586v-4.307  c0.076-0.015,0.153-0.029,0.227-0.062c0.771-0.349,1.513-0.767,2.24-1.216h12.119L58,52.414v3.77c-1.161,0.414-2,1.514-2,2.816  c0,1.654,1.346,3,3,3s3-1.346,3-3c0-1.302-0.839-2.402-2-2.816V52c0-0.265-0.105-0.52-0.293-0.707l-4-4  C55.52,47.105,55.265,47,55,47H44.003l-0.7-2.304c0.491-0.437,0.957-0.903,1.393-1.393l2.423,0.737  c0.409,0.124,0.853-0.025,1.102-0.372c0.388-0.538,0.749-1.096,1.081-1.668h3.882c0.414,1.161,1.514,2,2.816,2c1.654,0,3-1.346,3-3  s-1.346-3-3-3c-1.302,0-2.402,0.839-2.816,2h-2.906c0.063-0.331-0.036-0.677-0.29-0.915l-1.864-1.746  c0.205-0.619,0.374-1.251,0.506-1.892l2.502-0.584c0.417-0.097,0.726-0.45,0.768-0.876c0.033-0.336,0.033-0.657,0.05-0.987h4.235  c0.414,1.161,1.514,2,2.816,2c1.654,0,3-1.346,3-3s-1.346-3-3-3c-1.302,0-2.402,0.839-2.816,2H51.95  c-0.017-0.33-0.017-0.652-0.05-0.987c-0.042-0.426-0.351-0.779-0.768-0.876l-2.502-0.584c-0.132-0.64-0.301-1.273-0.506-1.891  l1.864-1.746c0.254-0.238,0.353-0.584,0.29-0.916h2.906c0.414,1.161,1.514,2,2.816,2c1.654,0,3-1.346,3-3s-1.346-3-3-3  c-1.302,0-2.402,0.839-2.816,2h-3.882c-0.332-0.572-0.692-1.129-1.08-1.667c-0.25-0.347-0.693-0.497-1.103-0.372l-2.424,0.736  c-0.437-0.491-0.903-0.957-1.393-1.393l0.7-2.304H55z M59,4c0.551,0,1,0.449,1,1s-0.449,1-1,1s-1-0.449-1-1S58.449,4,59,4z M48,4  c0.551,0,1,0.449,1,1s-0.449,1-1,1s-1-0.449-1-1S47.449,4,48,4z M16,6c-0.551,0-1-0.449-1-1s0.449-1,1-1s1,0.449,1,1S16.551,6,16,6z   M5,4c0.551,0,1,0.449,1,1S5.551,6,5,6S4,5.551,4,5S4.449,4,5,4z M8,24c-0.551,0-1-0.449-1-1s0.449-1,1-1s1,0.449,1,1S8.551,24,8,24  z M8,42c-0.551,0-1-0.449-1-1s0.449-1,1-1s1,0.449,1,1S8.551,42,8,42z M5,60c-0.551,0-1-0.449-1-1s0.449-1,1-1s1,0.449,1,1  S5.551,60,5,60z M16,60c-0.551,0-1-0.449-1-1s0.449-1,1-1s1,0.449,1,1S16.551,60,16,60z M48,58c0.551,0,1,0.449,1,1s-0.449,1-1,1  s-1-0.449-1-1S47.449,58,48,58z M59,60c-0.551,0-1-0.449-1-1s0.449-1,1-1s1,0.449,1,1S59.551,60,59,60z M56,40c0.551,0,1,0.449,1,1  s-0.449,1-1,1s-1-0.449-1-1S55.449,40,56,40z M56,22c0.551,0,1,0.449,1,1s-0.449,1-1,1s-1-0.449-1-1S55.449,22,56,22z M32,4  c0.551,0,1,0.449,1,1s-0.449,1-1,1s-1-0.449-1-1S31.449,4,32,4z M5,33c-0.551,0-1-0.449-1-1s0.449-1,1-1s1,0.449,1,1S5.551,33,5,33z   M32,60c-0.551,0-1-0.449-1-1s0.449-1,1-1s1,0.449,1,1S32.551,60,32,60z M59,31c0.551,0,1,0.449,1,1s-0.449,1-1,1s-1-0.449-1-1  S58.449,31,59,31z M43.59,22.479c0.256,0.312,0.675,0.438,1.063,0.321l2.351-0.714c0.399,0.604,0.762,1.229,1.084,1.87l-1.807,1.692  c-0.295,0.276-0.395,0.703-0.252,1.082c0.34,0.905,0.593,1.851,0.752,2.812c0.066,0.398,0.365,0.718,0.759,0.81l2.427,0.566  C49.989,31.286,50,31.647,50,32s-0.011,0.714-0.034,1.082l-2.427,0.566c-0.394,0.092-0.693,0.412-0.759,0.81  c-0.159,0.961-0.413,1.907-0.752,2.812c-0.142,0.378-0.042,0.806,0.252,1.082l1.807,1.692c-0.323,0.643-0.686,1.268-1.084,1.87  l-2.35-0.715c-0.387-0.117-0.806,0.009-1.063,0.321c-0.619,0.752-1.314,1.448-2.069,2.069c-0.312,0.257-0.439,0.676-0.321,1.063  l0.714,2.351c-0.604,0.399-1.229,0.762-1.87,1.084l-1.692-1.807c-0.277-0.295-0.706-0.395-1.082-0.252  c-0.905,0.34-1.851,0.593-2.812,0.752c-0.398,0.066-0.718,0.365-0.81,0.759l-0.566,2.427c-0.735,0.045-1.429,0.045-2.164,0  l-0.566-2.427c-0.092-0.394-0.412-0.693-0.81-0.759c-0.961-0.159-1.907-0.413-2.812-0.752c-0.38-0.143-0.806-0.042-1.082,0.252  l-1.693,1.807c-0.642-0.322-1.267-0.685-1.87-1.084l0.715-2.35c0.118-0.387-0.009-0.807-0.321-1.063  c-0.752-0.619-1.448-1.314-2.069-2.069c-0.257-0.313-0.677-0.44-1.063-0.321l-2.351,0.714c-0.399-0.604-0.762-1.229-1.084-1.87  l1.807-1.692c0.295-0.276,0.395-0.703,0.252-1.082c-0.34-0.905-0.593-1.851-0.752-2.812c-0.066-0.398-0.365-0.718-0.759-0.81  l-2.427-0.566C14.011,32.714,14,32.353,14,32s0.011-0.714,0.034-1.082l2.427-0.566c0.394-0.092,0.693-0.412,0.759-0.81  c0.159-0.961,0.413-1.907,0.752-2.812c0.142-0.378,0.042-0.806-0.252-1.082l-1.807-1.692c0.323-0.643,0.686-1.268,1.084-1.87  l2.35,0.714c0.388,0.119,0.806-0.008,1.063-0.321c0.619-0.752,1.315-1.448,2.069-2.069c0.312-0.257,0.439-0.676,0.321-1.063  l-0.714-2.351c0.604-0.399,1.229-0.762,1.87-1.084l1.692,1.807c0.276,0.294,0.704,0.394,1.082,0.252  c0.905-0.34,1.851-0.593,2.812-0.752c0.398-0.066,0.718-0.365,0.81-0.759l0.566-2.427c0.735-0.045,1.429-0.045,2.164,0l0.566,2.427  c0.092,0.394,0.412,0.693,0.81,0.759c0.961,0.159,1.907,0.413,2.812,0.752c0.378,0.141,0.805,0.042,1.082-0.252l1.693-1.807  c0.642,0.322,1.267,0.685,1.87,1.084l-0.715,2.35c-0.118,0.387,0.009,0.807,0.321,1.063C42.273,21.029,42.969,21.725,43.59,22.479z" style="fill:#1A1A1A;"/><path d="M32,21c-4.473,0-9,1.374-9,4v5v5v5c0,2.626,4.527,4,9,4s9-1.374,9-4v-5v-5v-5  C41,22.374,36.473,21,32,21z M32,42c-4.547,0-7-1.419-7-2v-2.4c1.736,0.923,4.374,1.4,7,1.4s5.264-0.477,7-1.4V40  C39,40.581,36.547,42,32,42z M32,37c-4.547,0-7-1.419-7-2v-2.4c1.736,0.923,4.374,1.4,7,1.4s5.264-0.477,7-1.4V35  C39,35.581,36.547,37,32,37z M32,32c-4.547,0-7-1.419-7-2v-2.4c1.736,0.923,4.374,1.4,7,1.4s5.264-0.477,7-1.4V30  C39,30.581,36.547,32,32,32z M32,27c-4.547,0-7-1.419-7-2s2.453-2,7-2s7,1.419,7,2S36.547,27,32,27z" style="fill:#1A1A1A;"/></svg>