<?xml version="1.0" ?><!DOCTYPE svg  PUBLIC '-//W3C//DTD SVG 1.1//EN'  'http://www.w3.org/Graphics/SVG/1.1/DTD/svg11.dtd'><svg height="256" version="1.1" viewBox="0, 0, 256, 256" width="256" xmlns="http://www.w3.org/2000/svg" xmlns:xlink="http://www.w3.org/1999/xlink"><g id="Layer_2"><g><path d="M201.865,150.74 C201.889,153.254 201.87,151.212 201.926,156.862 L202.016,165.786 C202.053,169.377 202.053,169.377 202.06,170.275 L202.078,172.001 L203.806,172.011 C204.618,172.016 204.618,172.016 207.864,172.035 C211.923,172.057 211.923,172.057 216.791,172.084 C222.215,172.114 220.125,172.104 223.065,172.119 C221.523,173.817 222.49,172.802 220.081,175.093 C209.871,184.343 196.626,189.821 184.897,189.821 C168.462,189.821 157.188,185.356 148.146,177.227 C146.851,176.035 147.455,176.613 146.327,175.497 C146.332,174.62 146.337,173.742 146.342,172.865 C146.364,168.807 146.364,168.807 146.39,163.938 C146.417,159.07 146.417,159.07 146.442,155.011 C146.449,153.52 146.444,154.296 146.454,152.681 C147.374,152.671 148.295,152.661 149.215,152.654 C152.823,152.617 156.431,152.58 160.039,152.544 C164.837,152.495 163.013,152.514 165.505,152.487 C166.1,153.068 165.669,152.661 166.852,153.643 C171.221,157.087 176.488,159.116 182.73,159.045 C189.802,158.908 197.344,156.497 201.865,150.74 z" fill="#FF910D"/><path d="M201.865,150.74 C201.889,153.254 201.87,151.212 201.926,156.862 L202.016,165.786 C202.053,169.377 202.053,169.377 202.06,170.275 L202.078,172.001 L203.806,172.011 C204.618,172.016 204.618,172.016 207.864,172.035 C211.923,172.057 211.923,172.057 216.791,172.084 C222.215,172.114 220.125,172.104 223.065,172.119 C221.523,173.817 222.49,172.802 220.081,175.093 C209.871,184.343 196.626,189.821 184.897,189.821 C168.462,189.821 157.188,185.356 148.146,177.227 C146.851,176.035 147.455,176.613 146.327,175.497 C146.332,174.62 146.337,173.742 146.342,172.865 C146.364,168.807 146.364,168.807 146.39,163.938 C146.417,159.07 146.417,159.07 146.442,155.011 C146.449,153.52 146.444,154.296 146.454,152.681 C147.374,152.671 148.295,152.661 149.215,152.654 C152.823,152.617 156.431,152.58 160.039,152.544 C164.837,152.495 163.013,152.514 165.505,152.487 C166.1,153.068 165.669,152.661 166.852,153.643 C171.221,157.087 176.488,159.116 182.73,159.045 C189.802,158.908 197.344,156.497 201.865,150.74 z" fill-opacity="0" stroke="#000000" stroke-width="4"/></g><g><path d="M228.307,90.662 C238.867,100.582 243.725,114.237 244.089,128.464 C244.07,138.648 241.101,148.606 235.477,157.102 C234.53,158.534 233.435,159.86 232.412,161.239 L231.97,161.236 C228.801,161.217 225.635,161.201 222.466,161.182 C219.854,161.167 217.243,161.153 214.631,161.139 C213.181,161.132 213.937,161.134 212.368,161.127 C212.358,160.233 212.349,159.339 212.339,158.446 L212.235,147.934 C212.204,145.043 212.175,142.155 212.147,139.264 C212.14,138.567 212.142,138.855 212.137,138.401 C213.668,134.854 214.146,131.048 214.146,127.216 C213.999,121.181 212.173,114.921 207.618,110.719 C210.604,110.595 208.443,110.683 214.106,110.45 C216.994,110.331 219.88,110.21 222.768,110.091 C226.251,109.948 226.251,109.948 227.123,109.913 L228.799,109.844 L228.756,108.165 C228.735,107.379 228.735,107.379 228.654,104.226 C228.554,100.287 228.554,100.287 228.433,95.559 C228.393,93.926 228.35,92.293 228.307,90.662 z" fill="#E67228"/><path d="M228.307,90.662 C238.867,100.582 243.725,114.237 244.089,128.464 C244.07,138.648 241.101,148.606 235.477,157.102 C234.53,158.534 233.435,159.86 232.412,161.239 L231.97,161.236 C228.801,161.217 225.635,161.201 222.466,161.182 C219.854,161.167 217.243,161.153 214.631,161.139 C213.181,161.132 213.937,161.134 212.368,161.127 C212.358,160.233 212.349,159.339 212.339,158.446 L212.235,147.934 C212.204,145.043 212.175,142.155 212.147,139.264 C212.14,138.567 212.142,138.855 212.137,138.401 C213.668,134.854 214.146,131.048 214.146,127.216 C213.999,121.181 212.173,114.921 207.618,110.719 C210.604,110.595 208.443,110.683 214.106,110.45 C216.994,110.331 219.88,110.21 222.768,110.091 C226.251,109.948 226.251,109.948 227.123,109.913 L228.799,109.844 L228.756,108.165 C228.735,107.379 228.735,107.379 228.654,104.226 C228.554,100.287 228.554,100.287 228.433,95.559 C228.393,93.926 228.35,92.293 228.307,90.662 z" fill-opacity="0" stroke="#000000" stroke-width="4"/></g><g><path d="M181.043,66.179 C193.99,66.383 207.186,70.712 217.103,79.23 C217.175,81.94 217.243,84.65 217.312,87.36 C217.434,92.086 217.434,92.086 217.533,96.027 C217.553,96.781 217.574,97.534 217.593,98.288 C216.699,98.326 215.805,98.361 214.911,98.4 C211.412,98.545 207.911,98.69 204.409,98.832 C201.523,98.953 198.635,99.072 195.749,99.191 L195.478,99.203 C191.536,96.957 186.937,96.224 182.467,96.051 C178.322,95.963 174.024,97.361 169.866,99.778 C168.43,100.613 167.12,101.509 165.965,102.4 C165.563,102.709 165.214,102.995 164.919,103.247 C164.75,103.389 164.643,103.484 164.6,103.525 L160.878,106.511 L160.861,101.523 C160.861,101.012 160.861,101.012 160.871,98.963 C160.875,97.425 160.978,95.887 160.985,94.346 C160.994,92.235 161.001,90.084 161.008,87.973 C159.226,87.99 156.318,87.954 154.535,87.971 C151.447,88.002 151.447,88.002 148.878,88.028 C146.819,88.049 146.819,88.049 146.305,88.054 L139.811,88.12 L144.171,83.309 C144.313,83.15 144.57,82.881 144.931,82.517 C145.519,81.926 146.203,81.272 146.983,80.573 C149.199,78.583 151.735,76.596 154.566,74.742 C162.718,69.4 171.632,66.179 181.043,66.179 z" fill="#C83F22"/><path d="M181.043,66.179 C193.99,66.383 207.186,70.712 217.103,79.23 C217.175,81.94 217.243,84.65 217.312,87.36 C217.434,92.086 217.434,92.086 217.533,96.027 C217.553,96.781 217.574,97.534 217.593,98.288 C216.699,98.326 215.805,98.361 214.911,98.4 C211.412,98.545 207.911,98.69 204.409,98.832 C201.523,98.953 198.635,99.072 195.749,99.191 L195.478,99.203 C191.536,96.957 186.937,96.224 182.467,96.051 C178.322,95.963 174.024,97.361 169.866,99.778 C168.43,100.613 167.12,101.509 165.965,102.4 C165.563,102.709 165.214,102.995 164.919,103.247 C164.75,103.389 164.643,103.484 164.6,103.525 L160.878,106.511 L160.861,101.523 C160.861,101.012 160.861,101.012 160.871,98.963 C160.875,97.425 160.978,95.887 160.985,94.346 C160.994,92.235 161.001,90.084 161.008,87.973 C159.226,87.99 156.318,87.954 154.535,87.971 C151.447,88.002 151.447,88.002 148.878,88.028 C146.819,88.049 146.819,88.049 146.305,88.054 L139.811,88.12 L144.171,83.309 C144.313,83.15 144.57,82.881 144.931,82.517 C145.519,81.926 146.203,81.272 146.983,80.573 C149.199,78.583 151.735,76.596 154.566,74.742 C162.718,69.4 171.632,66.179 181.043,66.179 z" fill-opacity="0" stroke="#000000" stroke-width="4"/></g><g><path d="M54.135,150.74 C54.111,153.254 54.13,151.212 54.074,156.862 L53.984,165.786 C53.947,169.377 53.947,169.377 53.94,170.275 L53.922,172.001 L52.194,172.011 C51.382,172.016 51.382,172.016 48.136,172.035 C44.077,172.057 44.077,172.057 39.209,172.084 C33.784,172.114 35.875,172.104 32.935,172.119 C34.477,173.817 33.51,172.802 35.919,175.093 C46.129,184.343 59.374,189.821 71.103,189.821 C87.538,189.821 98.812,185.356 107.854,177.227 C109.149,176.035 108.545,176.613 109.673,175.497 C109.668,174.62 109.663,173.742 109.658,172.865 C109.636,168.807 109.636,168.807 109.609,163.938 C109.583,159.07 109.583,159.07 109.558,155.011 C109.551,153.52 109.556,154.296 109.546,152.681 C108.625,152.671 107.705,152.661 106.785,152.654 C103.177,152.617 99.569,152.58 95.961,152.544 C91.163,152.495 92.987,152.514 90.495,152.487 C89.9,153.068 90.331,152.661 89.148,153.643 C84.779,157.087 79.512,159.116 73.27,159.045 C66.198,158.908 58.656,156.497 54.135,150.74 z" fill="#5ED0DB"/><path d="M54.135,150.74 C54.111,153.254 54.13,151.212 54.074,156.862 L53.984,165.786 C53.947,169.377 53.947,169.377 53.94,170.275 L53.922,172.001 L52.194,172.011 C51.382,172.016 51.382,172.016 48.136,172.035 C44.077,172.057 44.077,172.057 39.209,172.084 C33.784,172.114 35.875,172.104 32.935,172.119 C34.477,173.817 33.51,172.802 35.919,175.093 C46.129,184.343 59.374,189.821 71.103,189.821 C87.538,189.821 98.812,185.356 107.854,177.227 C109.149,176.035 108.545,176.613 109.673,175.497 C109.668,174.62 109.663,173.742 109.658,172.865 C109.636,168.807 109.636,168.807 109.609,163.938 C109.583,159.07 109.583,159.07 109.558,155.011 C109.551,153.52 109.556,154.296 109.546,152.681 C108.625,152.671 107.705,152.661 106.785,152.654 C103.177,152.617 99.569,152.58 95.961,152.544 C91.163,152.495 92.987,152.514 90.495,152.487 C89.9,153.068 90.331,152.661 89.148,153.643 C84.779,157.087 79.512,159.116 73.27,159.045 C66.198,158.908 58.656,156.497 54.135,150.74 z" fill-opacity="0" stroke="#000000" stroke-width="4"/></g><g><path d="M27.693,90.662 C17.134,100.582 12.275,114.237 11.911,128.464 C11.93,138.648 14.899,148.606 20.523,157.102 C21.47,158.534 22.565,159.86 23.588,161.239 L24.03,161.236 C27.199,161.217 30.365,161.201 33.534,161.182 C36.146,161.167 38.757,161.153 41.369,161.139 C42.819,161.132 42.063,161.134 43.632,161.127 C43.642,160.233 43.651,159.339 43.661,158.446 L43.765,147.934 C43.796,145.043 43.825,142.155 43.853,139.264 C43.86,138.567 43.858,138.855 43.863,138.401 C42.332,134.854 41.854,131.048 41.854,127.216 C42.001,121.181 43.827,114.921 48.382,110.719 C45.396,110.595 47.557,110.683 41.894,110.45 C39.006,110.331 36.12,110.21 33.232,110.091 C29.749,109.948 29.749,109.948 28.877,109.913 L27.201,109.844 L27.244,108.165 C27.265,107.379 27.265,107.379 27.346,104.226 C27.446,100.287 27.446,100.287 27.567,95.559 C27.607,93.926 27.65,92.293 27.693,90.662 z" fill="#29B1E6"/><path d="M27.693,90.662 C17.134,100.582 12.275,114.237 11.911,128.464 C11.93,138.648 14.899,148.606 20.523,157.102 C21.47,158.534 22.565,159.86 23.588,161.239 L24.03,161.236 C27.199,161.217 30.365,161.201 33.534,161.182 C36.146,161.167 38.757,161.153 41.369,161.139 C42.819,161.132 42.063,161.134 43.632,161.127 C43.642,160.233 43.651,159.339 43.661,158.446 L43.765,147.934 C43.796,145.043 43.825,142.155 43.853,139.264 C43.86,138.567 43.858,138.855 43.863,138.401 C42.332,134.854 41.854,131.048 41.854,127.216 C42.001,121.181 43.827,114.921 48.382,110.719 C45.396,110.595 47.557,110.683 41.894,110.45 C39.006,110.331 36.12,110.21 33.232,110.091 C29.749,109.948 29.749,109.948 28.877,109.913 L27.201,109.844 L27.244,108.165 C27.265,107.379 27.265,107.379 27.346,104.226 C27.446,100.287 27.446,100.287 27.567,95.559 C27.607,93.926 27.65,92.293 27.693,90.662 z" fill-opacity="0" stroke="#000000" stroke-width="4"/></g><g><path d="M74.956,66.179 C62.01,66.383 48.814,70.712 38.897,79.23 C38.825,81.94 38.756,84.65 38.688,87.36 C38.566,92.086 38.566,92.086 38.466,96.027 C38.447,96.781 38.426,97.534 38.407,98.288 C39.301,98.326 40.195,98.361 41.089,98.4 C44.588,98.545 48.089,98.69 51.591,98.832 C54.477,98.953 57.365,99.072 60.251,99.191 L60.522,99.203 C64.464,96.957 69.063,96.224 73.533,96.051 C77.678,95.963 81.976,97.361 86.134,99.778 C87.57,100.613 88.88,101.509 90.035,102.4 C90.437,102.709 90.786,102.995 91.081,103.247 C91.25,103.389 91.357,103.484 91.4,103.525 L95.122,106.511 L95.139,101.523 C95.139,101.012 95.139,101.012 95.129,98.963 C95.125,97.425 95.022,95.887 95.015,94.346 C95.006,92.235 94.999,90.084 94.991,87.973 C96.774,87.99 99.682,87.954 101.465,87.971 C104.553,88.002 104.553,88.002 107.122,88.028 C109.181,88.049 109.181,88.049 109.694,88.054 L116.189,88.12 L111.829,83.309 C111.687,83.15 111.43,82.881 111.068,82.517 C110.481,81.926 109.797,81.272 109.017,80.573 C106.801,78.583 104.265,76.596 101.434,74.742 C93.282,69.4 84.368,66.179 74.956,66.179 z" fill="#168AD9"/><path d="M74.956,66.179 C62.01,66.383 48.814,70.712 38.897,79.23 C38.825,81.94 38.756,84.65 38.688,87.36 C38.566,92.086 38.566,92.086 38.466,96.027 C38.447,96.781 38.426,97.534 38.407,98.288 C39.301,98.326 40.195,98.361 41.089,98.4 C44.588,98.545 48.089,98.69 51.591,98.832 C54.477,98.953 57.365,99.072 60.251,99.191 L60.522,99.203 C64.464,96.957 69.063,96.224 73.533,96.051 C77.678,95.963 81.976,97.361 86.134,99.778 C87.57,100.613 88.88,101.509 90.035,102.4 C90.437,102.709 90.786,102.995 91.081,103.247 C91.25,103.389 91.357,103.484 91.4,103.525 L95.122,106.511 L95.139,101.523 C95.139,101.012 95.139,101.012 95.129,98.963 C95.125,97.425 95.022,95.887 95.015,94.346 C95.006,92.235 94.999,90.084 94.991,87.973 C96.774,87.99 99.682,87.954 101.465,87.971 C104.553,88.002 104.553,88.002 107.122,88.028 C109.181,88.049 109.181,88.049 109.694,88.054 L116.189,88.12 L111.829,83.309 C111.687,83.15 111.43,82.881 111.068,82.517 C110.481,81.926 109.797,81.272 109.017,80.573 C106.801,78.583 104.265,76.596 101.434,74.742 C93.282,69.4 84.368,66.179 74.956,66.179 z" fill-opacity="0" stroke="#000000" stroke-width="4"/></g><g><path d="M159.995,143.303 C153.902,136.221 125.849,99.897 125.849,99.897 C125.849,99.897 106.158,98.988 106.158,98.988 C106.158,98.988 106.158,120.194 106.158,120.194 C106.158,120.194 137.821,163.288 137.821,163.288 C137.821,163.288 137.872,143.151 137.872,143.151 C137.872,143.151 149.653,143.392 159.995,143.303 z" fill="#FFCB4F"/><path d="M159.995,143.303 C153.902,136.221 125.849,99.897 125.849,99.897 C125.849,99.897 106.158,98.988 106.158,98.988 C106.158,98.988 106.158,120.194 106.158,120.194 C106.158,120.194 137.821,163.288 137.821,163.288 C137.821,163.288 137.872,143.151 137.872,143.151 C137.872,143.151 149.653,143.392 159.995,143.303 z" fill-opacity="0" stroke="#000000" stroke-width="4"/></g><g><path d="M99.919,143.303 C106.011,136.221 134.064,99.897 134.064,99.897 C134.064,99.897 153.755,98.988 153.755,98.988 C153.755,98.988 153.755,120.194 153.755,120.194 C153.755,120.194 122.092,163.288 122.092,163.288 C122.092,163.288 122.042,143.151 122.042,143.151 C122.042,143.151 110.261,143.392 99.919,143.303 z" fill="#5EDABF"/><path d="M99.919,143.303 C106.011,136.221 134.064,99.897 134.064,99.897 C134.064,99.897 153.755,98.988 153.755,98.988 C153.755,98.988 153.755,120.194 153.755,120.194 C153.755,120.194 122.092,163.288 122.092,163.288 C122.092,163.288 122.042,143.151 122.042,143.151 C122.042,143.151 110.261,143.392 99.919,143.303 z" fill-opacity="0" stroke="#000000" stroke-width="4"/></g></g></svg>