<svg width="2911" height="659" viewBox="0 0 2911 659" fill="none" xmlns="http://www.w3.org/2000/svg">
<path d="M60.1562 12.9531V63.7344H54.0625V12.9531H60.1562ZM62.3438 75.6875V80.8438H15.3125V58.5781H21.4062V75.6875H62.3438ZM22.6562 17.7969C33.0469 17.7969 40.8594 24.8281 40.8594 34.8281C40.8594 44.9844 33.0469 51.9375 22.6562 51.9375C12.2656 51.9375 4.45312 44.9844 4.45312 34.8281C4.45312 24.8281 12.2656 17.7969 22.6562 17.7969ZM22.6562 23.1875C15.625 23.1875 10.3906 28.0312 10.4688 34.8281C10.3906 41.7812 15.625 46.5469 22.6562 46.5469C29.5312 46.5469 34.8438 41.7812 34.8438 34.8281C34.8438 28.0312 29.5312 23.1875 22.6562 23.1875ZM103.359 56.7812C118.281 56.7812 127.734 61.4688 127.734 69.5156C127.734 77.4844 118.281 82.1719 103.359 82.1719C88.5156 82.1719 79.0625 77.4844 79.0625 69.5156C79.0625 61.4688 88.5156 56.7812 103.359 56.7812ZM103.359 61.4688C92.2656 61.5469 85.0781 64.5938 85.1562 69.5156C85.0781 74.3594 92.2656 77.3281 103.359 77.3281C114.453 77.3281 121.562 74.3594 121.641 69.5156C121.562 64.5938 114.453 61.5469 103.359 61.4688ZM127.188 16.4688V22.3281C127.188 27.9531 127.188 33.5781 125.234 40.7656L119.219 40.0625C121.094 32.875 121.094 27.7969 121.094 22.3281V21.4688H79.5312V16.4688H127.188ZM135.234 45.2969V50.2969H72.0312V45.2969H98.2031V31.8594H104.219V45.2969H135.234ZM165.938 34.2031C165.938 46 174.531 57.9531 184.766 62.4062L181.328 67.25C173.203 63.5391 166.172 55.5312 162.969 45.9219C159.688 56.1172 152.695 64.9844 144.766 68.9688L141.094 64.125C151.016 59.3594 159.688 46.2344 159.766 34.2031V25.1406H143.359V20.0625H182.5V25.1406H165.938V34.2031ZM198.359 12.875V82.3281H192.188V12.875H198.359ZM266.328 32.3281V37.4062H218.906V14.2812H225V32.3281H266.328ZM273.594 45.5312V50.6094H210.234V45.5312H273.594ZM241.875 56.8594C256.797 56.8594 265.703 61.3906 265.781 69.4375C265.703 77.4844 256.797 82.0156 241.875 82.0156C226.875 82.0156 217.891 77.4844 217.891 69.4375C217.891 61.3906 226.875 56.8594 241.875 56.8594ZM241.875 61.7031C230.703 61.7812 224.062 64.5156 224.141 69.4375C224.062 74.2812 230.703 77.25 241.875 77.25C252.891 77.25 259.609 74.2812 259.609 69.4375C259.609 64.5156 252.891 61.7812 241.875 61.7031ZM302.109 17.9531C313.047 17.9531 320.781 24.5938 320.781 34.2812C320.781 43.9688 313.047 50.6094 302.109 50.6094C291.172 50.6094 283.281 43.9688 283.359 34.2812C283.281 24.5938 291.172 17.9531 302.109 17.9531ZM302.109 23.3438C294.688 23.3438 289.297 27.7969 289.375 34.2812C289.297 40.7656 294.688 45.2188 302.109 45.2188C309.453 45.2188 314.766 40.7656 314.766 34.2812C314.766 27.7969 309.453 23.3438 302.109 23.3438ZM336.328 12.875V82.4844H330.234V12.875H336.328ZM279.766 61.9375C292.578 61.9375 310.234 61.8594 325.625 59.5938L326.094 64.125C310.234 67.0938 293.125 67.1719 280.625 67.1719L279.766 61.9375ZM425.859 12.875V82.4844H419.688V12.875H425.859ZM378.75 18.8125V37.1719H399.453V18.8125H405.469V65.6875H372.656V18.8125H378.75ZM378.75 60.5312H399.453V42.0938H378.75V60.5312ZM495.312 12.9531V63.8906H489.141V37.25H474.844V32.1719H489.141V12.9531H495.312ZM497.266 75.6875V80.8438H450.703V59.2812H456.875V75.6875H497.266ZM461.875 27.25C461.875 36.2344 468.828 44.9844 478.984 48.4219L475.781 53.3438C467.93 50.5312 461.875 44.6719 458.906 37.4844C455.898 45.4922 449.492 51.8984 441.25 54.9844L438.047 49.9844C448.281 46.3906 455.703 37.25 455.703 27.25V23.6562H440V18.5781H477.422V23.6562H461.875V27.25ZM538.516 14.125C553.984 14.125 563.047 18.3438 563.047 26.0781C563.047 33.9688 553.984 38.1875 538.516 38.2656C523.047 38.1875 513.906 33.9688 513.906 26.0781C513.906 18.3438 523.047 14.125 538.516 14.125ZM538.516 18.7344C526.953 18.7344 520.234 21.5469 520.312 26.0781C520.234 30.9219 526.953 33.5781 538.516 33.5781C550 33.5781 556.797 30.9219 556.797 26.0781C556.797 21.5469 550 18.7344 538.516 18.7344ZM570.156 42.9531V47.9531H506.875V42.9531H570.156ZM562.031 53.9688V69.5156H520.781V76.7031H564.141V81.5469H514.688V64.9844H556.016V58.6562H514.531V53.9688H562.031ZM60.3906 107.953V160.922H54.2188V146H42.1875V141H54.2188V131.547H42.1875V126.469H54.2188V107.953H60.3906ZM42.1875 116.469V121.469H2.89062V116.469H19.7656V107.875H25.8594V116.469H42.1875ZM22.7344 125.297C32.0312 125.297 38.5938 130.609 38.5938 138.578C38.5938 146.469 32.0312 151.859 22.7344 151.859C13.4375 151.859 6.95312 146.469 7.03125 138.578C6.95312 130.609 13.4375 125.297 22.7344 125.297ZM22.7344 130.141C16.7969 130.219 12.7344 133.578 12.7344 138.578C12.7344 143.578 16.7969 146.938 22.7344 146.938C28.6719 146.938 32.7344 143.578 32.8125 138.578C32.7344 133.578 28.6719 130.219 22.7344 130.141ZM61.9531 170.688V175.844H15.4688V156.234H21.6406V170.688H61.9531ZM129.219 107.875V143.891H123.203V107.875H129.219ZM129.297 147.406V164.047H90.3125V171.547H131.797V176.547H84.2969V159.281H123.203V152.328H84.1406V147.406H129.297ZM96.5625 115.219C96.4844 125.062 103.984 133.734 114.297 137.094L111.25 141.859C103.125 139.086 96.6406 133.266 93.5156 125.766C90.3906 133.852 83.8672 140.219 75.625 143.188L72.4219 138.344C82.8906 134.672 90.3125 125.453 90.3125 115.219V109.906H96.5625V115.219ZM204.688 163.578V168.734H141.094V163.578H169.688V150.453H149.062V129.047H190.625V118.109H148.906V113.031H196.641V134.047H155.156V145.375H198.281V150.453H175.703V163.578H204.688ZM265.391 114.203V146.156H233.281V114.203H265.391ZM239.297 119.203V141.234H259.453V119.203H239.297ZM284.609 107.875V129.047H295.078V134.203H284.609V158.812H278.516V107.875H284.609ZM287.812 170.688V175.844H241.172V153.969H247.188V170.688H287.812ZM355.547 141.312V146.391H307.578V114.359H354.844V119.438H313.672V141.312H355.547ZM363.047 162.719V167.875H299.453V162.719H363.047ZM424.766 128.969V133.891H377.188V110.453H383.281V128.969H424.766ZM432.109 143.344V148.344H368.516V143.344H432.109ZM425.156 170.531V175.609H376.797V155.453H382.891V170.531H425.156ZM42.7344 210.453V215.531H35V248.969C38.75 248.695 42.4609 248.383 46.0156 247.953L46.3281 252.484C31.6406 254.828 15 255.062 2.73438 255.141L1.95312 249.906L11.3281 249.828V215.531H3.67188V210.453H42.7344ZM56.5625 202.875V230.766H68.2031V235.922H56.5625V272.328H50.4688V202.875H56.5625ZM17.2656 249.75C21.1328 249.672 25.1562 249.516 29.1406 249.281V215.531H17.2656V249.75ZM128.203 240.453V245.453H80.1562V208.891H127.422V214.047H86.4062V224.359H125.938V229.281H86.4062V240.453H128.203ZM135.547 258.188V263.266H71.9531V258.188H135.547ZM198.75 202.875V272.484H192.578V230.922H170.938V225.844H192.578V202.875H198.75ZM151.094 210.688V250.453C161.68 250.336 171.133 249.789 181.562 247.641L182.344 252.719C171.25 254.984 161.484 255.609 150.234 255.609H144.922V210.688H151.094Z" fill="white"/>
<g clip-path="url(#clip0_17_114)">
<path d="M946.762 247.321H995.664L1110.42 421.861H1111.94V247.321H1154.81V489.882H1106.56L991.329 314.345H989.638V489.882H946.762V247.321Z" fill="white"/>
<path d="M1325.28 489.882V465.084H1323.93C1318.34 474.795 1311.1 482.121 1302.17 487.107C1293.24 492.093 1282.83 494.564 1271 494.564C1255.48 494.564 1241.56 490.619 1229.21 482.685C1216.85 474.751 1207.18 463.87 1200.16 450.04C1193.14 436.211 1189.63 420.69 1189.63 403.479C1189.63 386.268 1193.14 370.748 1200.16 356.918C1207.18 343.088 1216.9 332.207 1229.21 324.273C1241.56 316.34 1255.48 312.394 1271 312.394C1282.83 312.394 1293.24 314.866 1302.17 319.851C1311.1 324.837 1318.34 332.163 1323.93 341.874H1325.28V317.077H1366.46V489.925H1325.28V489.882ZM1303.6 449.91C1310.8 445.401 1316.43 439.072 1320.51 430.965C1324.58 422.858 1326.62 413.667 1326.62 403.392C1326.62 393.118 1324.58 383.927 1320.51 375.82C1316.43 367.713 1310.8 361.427 1303.6 356.875C1296.4 352.366 1288.21 350.112 1279.06 350.112C1269.92 350.112 1261.55 352.409 1254.27 356.961C1247.03 361.557 1241.35 367.843 1237.27 375.907C1233.2 383.927 1231.16 393.118 1231.16 403.392C1231.16 413.667 1233.2 422.815 1237.27 430.878C1241.35 438.899 1247.03 445.228 1254.27 449.823C1261.51 454.419 1269.79 456.673 1279.06 456.673C1288.34 456.673 1296.4 454.419 1303.6 449.91Z" fill="white"/>
<path d="M1398.5 317.033H1427.33V274.157H1468.52V317.033H1509.7V349.548H1468.52V430.271C1468.52 438.985 1470.38 445.315 1474.11 449.303C1477.84 453.249 1483.78 455.286 1491.93 455.416C1497.6 455.199 1503.54 454.289 1509.7 452.728V490.229C1501.55 493.133 1493.05 494.564 1484.25 494.564C1466.26 494.564 1452.3 489.145 1442.37 478.307C1432.45 467.468 1427.42 452.251 1427.29 432.569V349.505H1398.46V316.99L1398.5 317.033Z" fill="white"/>
<path d="M1552.19 284.692C1548.33 282.568 1545.29 279.62 1543.04 275.805C1540.78 271.99 1539.7 267.784 1539.7 263.059C1539.7 258.333 1540.78 254.301 1542.95 250.486C1545.12 246.671 1548.15 243.723 1552.01 241.512C1555.87 239.345 1560.12 238.261 1564.85 238.261C1569.57 238.261 1573.82 239.345 1577.68 241.512C1581.54 243.68 1584.53 246.671 1586.74 250.486C1588.91 254.301 1589.99 258.463 1589.99 263.059C1589.99 267.654 1588.91 271.816 1586.74 275.631C1584.57 279.446 1581.58 282.394 1577.76 284.605C1573.95 286.773 1569.79 287.857 1565.19 287.857C1560.38 287.857 1556.04 286.816 1552.23 284.692H1552.19ZM1544.38 317.033H1585.26V489.882H1544.38V317.033Z" fill="white"/>
<path d="M1663.21 482.685C1649.43 474.751 1638.55 463.826 1630.66 449.954C1622.72 436.037 1618.78 420.56 1618.78 403.479C1618.78 386.398 1622.72 370.921 1630.66 357.005C1638.59 343.088 1649.43 332.207 1663.21 324.273C1677 316.34 1692.35 312.394 1709.21 312.394C1726.08 312.394 1741.38 316.34 1755.21 324.273C1769 332.207 1779.88 343.132 1787.77 357.005C1795.7 370.921 1799.65 386.398 1799.65 403.479C1799.65 420.56 1795.7 436.037 1787.77 449.954C1779.83 463.87 1769 474.751 1755.21 482.685C1741.42 490.619 1726.08 494.564 1709.21 494.564C1692.35 494.564 1677.04 490.619 1663.21 482.685ZM1735.18 449.91C1742.77 445.401 1748.71 439.072 1753 430.965C1757.29 422.858 1759.46 413.667 1759.46 403.392C1759.46 393.118 1757.29 383.927 1753 375.82C1748.71 367.713 1742.77 361.427 1735.18 356.875C1727.59 352.366 1718.92 350.112 1709.21 350.112C1699.5 350.112 1690.83 352.366 1683.24 356.875C1675.66 361.383 1669.72 367.713 1665.42 375.82C1661.13 383.927 1658.97 393.118 1658.97 403.392C1658.97 413.667 1661.13 422.858 1665.42 430.965C1669.72 439.072 1675.66 445.358 1683.24 449.91C1690.83 454.419 1699.5 456.673 1709.21 456.673C1718.92 456.673 1727.59 454.419 1735.18 449.91Z" fill="white"/>
<path d="M1833.16 317.033H1874.04V342.481H1875.21C1879.89 333.117 1886.87 325.747 1896.06 320.371C1905.25 314.995 1915.92 312.351 1927.97 312.351C1940.93 312.351 1951.99 315.299 1961.22 321.238C1970.41 327.178 1977.39 335.675 1982.16 346.773C1986.89 357.872 1989.27 371.094 1989.27 386.398V489.925H1948.09V393.118C1948.22 379.505 1945.31 368.97 1939.46 361.557C1933.61 354.143 1925.2 350.372 1914.27 350.241C1906.77 350.372 1900.05 352.192 1894.02 355.791C1888 359.346 1883.14 364.895 1879.54 372.352C1875.9 379.852 1874.08 389.086 1874.08 400.141V489.925H1833.2V317.076L1833.16 317.033Z" fill="white"/>
<path d="M2050.4 334.114H2015.89L2039.34 247.365H2081.57L2050.4 334.114Z" fill="white"/>
<path d="M2115.73 487.02C2104.03 481.991 2094.01 474.665 2085.73 465.084L2111.18 440.286C2117.77 447.222 2124.45 452.164 2131.3 455.199C2138.1 458.234 2146.04 459.708 2155.1 459.708C2164.94 459.708 2172.53 457.974 2177.86 454.505C2183.23 451.037 2185.88 446.182 2185.88 439.939C2185.88 436.254 2184.97 433.219 2183.1 430.791C2181.24 428.407 2178.16 426.196 2173.83 424.245C2169.49 422.294 2163.33 420.387 2155.4 418.479L2146.69 416.138C2109.97 407.424 2091.63 390.777 2091.76 366.239C2091.76 356.094 2094.62 346.903 2100.39 338.666C2106.15 330.473 2114.09 324.013 2124.27 319.331C2134.42 314.649 2145.82 312.308 2158.44 312.308C2171.05 312.308 2182.63 314.735 2193.77 319.591C2204.95 324.446 2214.71 331.383 2223.07 340.444L2197.93 365.242C2192.25 359.216 2186.14 354.707 2179.68 351.672C2173.22 348.637 2166.11 347.163 2158.39 347.163C2150.11 347.163 2143.48 348.768 2138.45 352.019C2133.42 355.27 2130.91 359.562 2130.91 364.895C2130.91 367.799 2131.64 370.184 2133.16 372.091C2134.68 373.999 2137.19 375.733 2140.7 377.294C2144.22 378.854 2149.2 380.415 2155.7 381.976L2164.76 384.317C2185.66 389.346 2200.96 396.239 2210.76 404.996C2220.52 413.754 2225.42 424.939 2225.42 438.595C2225.42 449.52 2222.47 459.274 2216.53 467.728C2210.59 476.225 2202.27 482.815 2191.47 487.497C2180.68 492.179 2168.32 494.52 2154.36 494.52C2140.4 494.52 2127.39 492.006 2115.69 486.977L2115.73 487.02Z" fill="white"/>
<path d="M537.812 499.593V202.928C537.812 189.161 526.661 178 512.906 178C499.15 178 487.999 189.161 487.999 202.928V499.593C487.999 513.36 499.15 524.521 512.906 524.521C526.661 524.521 537.812 513.36 537.812 499.593Z" fill="#39A0FF"/>
<path d="M514.402 230.804L799.838 230.804C814.42 230.804 826.24 218.984 826.24 204.402C826.24 189.821 814.42 178 799.838 178L514.402 178C499.821 178 488 189.821 488 204.402C488 218.984 499.821 230.804 514.402 230.804Z" fill="#39A0FF"/>
<path d="M792.468 524.521C811.143 524.521 826.283 508.993 826.283 489.838C826.283 470.684 811.143 455.156 792.468 455.156C773.792 455.156 758.652 470.684 758.652 489.838C758.652 508.993 773.792 524.521 792.468 524.521Z" fill="#68FD57"/>
<path d="M514.402 524.434H680.488C695.069 524.434 706.89 512.613 706.89 498.032C706.89 483.451 695.069 471.63 680.488 471.63H514.402C499.821 471.63 488 483.451 488 498.032C488 512.613 499.821 524.434 514.402 524.434Z" fill="url(#paint0_linear_17_114)"/>
<path d="M826.327 376.6V203.795C826.327 189.549 814.778 178 800.532 178C786.286 178 774.737 189.549 774.737 203.795V376.6C774.737 390.846 786.286 402.395 800.532 402.395C814.778 402.395 826.327 390.846 826.327 376.6Z" fill="url(#paint1_linear_17_114)"/>
<path d="M2334.37 240.624H2377.25V442.953H2484.11V483.141H2334.37V240.624Z" fill="white"/>
<path d="M2641.4 483.184V458.386H2640.05C2634.46 468.098 2627.22 475.424 2618.29 480.41C2609.36 485.395 2598.95 487.867 2587.12 487.867C2571.6 487.867 2557.68 483.921 2545.33 475.988C2532.97 468.054 2523.3 457.173 2516.28 443.343C2509.26 429.513 2505.75 413.993 2505.75 396.782C2505.75 379.571 2509.26 364.05 2516.28 350.221C2523.3 336.391 2533.01 325.509 2545.33 317.576C2557.68 309.642 2571.6 305.697 2587.12 305.697C2598.95 305.697 2609.36 308.168 2618.29 313.154C2627.22 318.139 2634.46 325.466 2640.05 335.177H2641.4V310.379H2682.58V483.228H2641.4V483.184ZM2619.68 443.213C2626.87 438.704 2632.51 432.375 2636.58 424.268C2640.66 416.161 2642.7 406.97 2642.7 396.695C2642.7 386.42 2640.66 377.23 2636.58 369.123C2632.51 361.016 2626.87 354.729 2619.68 350.177C2612.48 345.669 2604.29 343.414 2595.14 343.414C2585.99 343.414 2577.62 345.712 2570.34 350.264C2563.1 354.859 2557.42 361.146 2553.35 369.209C2549.27 377.23 2547.23 386.42 2547.23 396.695C2547.23 406.97 2549.27 416.117 2553.35 424.181C2557.42 432.201 2563.1 438.531 2570.34 443.126C2577.58 447.722 2585.86 449.976 2595.14 449.976C2604.42 449.976 2612.48 447.722 2619.68 443.213Z" fill="white"/>
<path d="M2724.63 240.624H2765.52V335.09H2767.03C2772.63 325.249 2779.87 317.879 2788.71 312.98C2797.6 308.081 2807.96 305.61 2819.79 305.61C2835.44 305.61 2849.4 309.556 2861.76 317.489C2874.11 325.423 2883.74 336.348 2890.72 350.221C2897.7 364.137 2901.17 379.614 2901.17 396.695C2901.17 413.776 2897.66 429.253 2890.72 443.169C2883.74 457.086 2874.07 467.967 2861.76 475.901C2849.4 483.835 2835.44 487.78 2819.79 487.78C2807.96 487.78 2797.6 485.309 2788.71 480.41C2779.82 475.511 2772.58 468.141 2767.03 458.3H2765.52V483.098H2724.63V240.624ZM2836.61 443.126C2843.94 438.531 2849.58 432.245 2853.61 424.181C2857.64 416.161 2859.64 406.97 2859.64 396.695C2859.64 386.42 2857.64 377.273 2853.61 369.209C2849.58 361.189 2843.94 354.859 2836.61 350.264C2829.29 345.669 2821.01 343.414 2811.73 343.414C2802.45 343.414 2794.56 345.669 2787.37 350.177C2780.17 354.686 2774.49 361.016 2770.37 369.123C2766.25 377.23 2764.17 386.42 2764.17 396.695C2764.17 406.97 2766.25 416.161 2770.37 424.268C2774.49 432.375 2780.17 438.661 2787.37 443.213C2794.56 447.722 2802.71 449.976 2811.73 449.976C2820.75 449.976 2829.29 447.678 2836.61 443.126Z" fill="white"/>
</g>
<path d="M1067.33 589.453C1067.25 598.672 1074.12 606.953 1084.44 610.391L1081.31 615.312C1073.34 612.578 1067.29 606.953 1064.28 599.844C1061.31 607.734 1054.95 613.945 1046.7 616.953L1043.5 611.953C1053.97 608.359 1061.08 599.531 1061.16 589.531V586.797H1045.38V581.797H1082.8V586.797H1067.33V589.453ZM1098.11 576.875V594.219H1108.58V599.375H1098.11V617.812H1092.02V576.875H1098.11ZM1098.11 621.016V645.391H1054.28V621.016H1098.11ZM1060.3 625.938V640.391H1092.02V625.938H1060.3ZM1172.64 576.875V646.328H1166.7V610.234H1157.25V642.812H1151.39V578.359H1157.25V605H1166.7V576.875H1172.64ZM1133.5 595.859C1133.5 608.594 1138.73 619.766 1148.66 624.844L1144.98 629.609C1137.95 625.781 1133.15 618.906 1130.69 610.391C1128.3 620.078 1123.42 627.656 1116.08 631.953L1112.25 627.266C1122.25 621.797 1127.56 609.922 1127.56 595.859V590.312H1113.89V585.156H1146.39V590.312H1133.5V595.859ZM1215.06 581.172V600.625H1191.16V611.406C1204.2 611.406 1210.92 611.211 1219.12 609.688L1219.75 614.766C1211.08 616.172 1204.05 616.406 1189.98 616.406H1185.06V595.938H1208.97V586.094H1184.91V581.172H1215.06ZM1239.67 576.953V619.609H1233.5V606.719H1219.67V601.641H1233.5V592.266H1219.67V587.266H1233.5V576.953H1239.67ZM1239.67 623.359V646.484H1233.5V628.359H1192.88V623.359H1239.67ZM1289.75 584.609V588.203C1289.67 593.672 1289.67 602.891 1287.72 615.781L1281.55 615.234C1283.42 603.594 1283.58 595.156 1283.58 589.609H1254.44V584.609H1289.75ZM1271.55 604.453V625.547C1279.24 625.273 1287.13 624.766 1294.36 623.906L1294.67 628.516C1280.06 630.781 1263.73 631.094 1251.31 631.016L1250.53 625.938C1255.1 625.898 1260.18 625.859 1265.53 625.703V604.453H1271.55ZM1304.83 576.875V605.938H1316.08V611.25H1304.83V646.328H1298.73V576.875H1304.83ZM1394.2 576.875V605.156H1405.45V610.312H1394.2V646.328H1388.11V576.875H1394.2ZM1376.23 584.375C1376.23 604.062 1367.02 621.953 1344.36 633.125L1340.92 628.281C1358.89 619.336 1368.66 605.977 1370.06 589.531H1344.12V584.375H1376.23ZM1465.69 596.328V601.406H1418.27V578.281H1424.36V596.328H1465.69ZM1472.95 609.531V614.609H1409.59V609.531H1472.95ZM1441.23 620.859C1456.16 620.859 1465.06 625.391 1465.14 633.438C1465.06 641.484 1456.16 646.016 1441.23 646.016C1426.23 646.016 1417.25 641.484 1417.25 633.438C1417.25 625.391 1426.23 620.859 1441.23 620.859ZM1441.23 625.703C1430.06 625.781 1423.42 628.516 1423.5 633.438C1423.42 638.281 1430.06 641.25 1441.23 641.25C1452.25 641.25 1458.97 638.281 1458.97 633.438C1458.97 628.516 1452.25 625.781 1441.23 625.703ZM1502.64 587.812C1502.56 597.734 1509.59 606.484 1519.83 609.922L1516.39 614.688C1508.73 611.797 1502.72 606.172 1499.75 598.828C1496.74 607.148 1490.38 613.633 1482.02 616.797L1478.66 611.797C1489.36 608.047 1496.47 598.828 1496.55 588.047V580.859H1502.64V587.812ZM1536.31 576.875V618.047H1530.14V596.875H1514.67V591.797H1530.14V576.875H1536.31ZM1513.27 620.078C1527.72 620.078 1536.55 624.844 1536.55 633.203C1536.55 641.484 1527.72 646.172 1513.27 646.172C1498.81 646.172 1489.98 641.484 1489.98 633.203C1489.98 624.844 1498.81 620.078 1513.27 620.078ZM1513.27 624.922C1502.64 624.922 1496 628.047 1496.08 633.203C1496 638.203 1502.64 641.25 1513.27 641.25C1523.89 641.25 1530.45 638.203 1530.45 633.203C1530.45 628.047 1523.89 624.922 1513.27 624.922ZM1579.52 578.125C1594.98 578.125 1604.05 582.344 1604.05 590.078C1604.05 597.969 1594.98 602.188 1579.52 602.266C1564.05 602.188 1554.91 597.969 1554.91 590.078C1554.91 582.344 1564.05 578.125 1579.52 578.125ZM1579.52 582.734C1567.95 582.734 1561.23 585.547 1561.31 590.078C1561.23 594.922 1567.95 597.578 1579.52 597.578C1591 597.578 1597.8 594.922 1597.8 590.078C1597.8 585.547 1591 582.734 1579.52 582.734ZM1611.16 606.953V611.953H1547.88V606.953H1611.16ZM1603.03 617.969V633.516H1561.78V640.703H1605.14V645.547H1555.69V628.984H1597.02V622.656H1555.53V617.969H1603.03ZM1694.36 576.875V612.891H1688.34V576.875H1694.36ZM1694.44 616.406V633.047H1655.45V640.547H1696.94V645.547H1649.44V628.281H1688.34V621.328H1649.28V616.406H1694.44ZM1661.7 584.219C1661.62 594.062 1669.12 602.734 1679.44 606.094L1676.39 610.859C1668.27 608.086 1661.78 602.266 1658.66 594.766C1655.53 602.852 1649.01 609.219 1640.77 612.188L1637.56 607.344C1648.03 603.672 1655.45 594.453 1655.45 584.219V578.906H1661.7V584.219ZM1763.81 576.953V629.922H1757.64V615H1745.61V610H1757.64V600.547H1745.61V595.469H1757.64V576.953H1763.81ZM1745.61 585.469V590.469H1706.31V585.469H1723.19V576.875H1729.28V585.469H1745.61ZM1726.16 594.297C1735.45 594.297 1742.02 599.609 1742.02 607.578C1742.02 615.469 1735.45 620.859 1726.16 620.859C1716.86 620.859 1710.38 615.469 1710.45 607.578C1710.38 599.609 1716.86 594.297 1726.16 594.297ZM1726.16 599.141C1720.22 599.219 1716.16 602.578 1716.16 607.578C1716.16 612.578 1720.22 615.938 1726.16 615.938C1732.09 615.938 1736.16 612.578 1736.23 607.578C1736.16 602.578 1732.09 599.219 1726.16 599.141ZM1765.38 639.688V644.844H1718.89V625.234H1725.06V639.688H1765.38ZM1800.06 595.547C1799.98 608.203 1808.66 621.016 1818.89 625.625L1815.14 630.469C1807.25 626.602 1800.41 618.438 1797.09 608.516C1793.85 619.023 1787.02 627.773 1778.89 631.875L1774.98 626.719C1785.3 621.953 1793.89 608.75 1793.97 595.547V582.891H1800.06V595.547ZM1832.64 576.875V646.484H1826.47V576.875H1832.64ZM1881.78 584.141C1881.7 604.219 1874.44 622.734 1849.36 635L1845.92 630.078C1858.93 623.828 1866.98 615.82 1871.39 606.406L1847.25 608.75L1846.23 603.281L1873.34 601.484C1874.59 597.617 1875.34 593.516 1875.61 589.219H1849.75V584.141H1881.78ZM1901.94 576.875V646.328H1895.77V576.875H1901.94ZM1969.83 597.969V602.891H1922.25V579.453H1928.34V597.969H1969.83ZM1977.17 612.344V617.344H1913.58V612.344H1977.17ZM1970.22 639.531V644.609H1921.86V624.453H1927.95V639.531H1970.22ZM2028.89 640H2021.55L2042.25 583.438H2049.67L2070.38 640H2062.95L2057.33 624.062H2034.59L2028.89 640ZM2036.7 617.891H2055.14L2046.16 592.578H2045.69L2036.7 617.891ZM2085.06 583.438V640H2078.03V583.438H2085.06ZM2101.47 620.312C2098.73 620.312 2096.39 618.047 2096.47 615.234C2096.39 612.5 2098.73 610.234 2101.47 610.234C2104.2 610.234 2106.47 612.5 2106.47 615.234C2106.47 618.047 2104.2 620.312 2101.47 620.312ZM2156.47 601.25C2154.83 593.438 2148.11 589.219 2140.69 589.219C2130.45 589.219 2122.48 597.109 2122.48 611.719C2122.48 626.328 2130.45 634.219 2140.69 634.219C2148.11 634.219 2154.75 630 2156.47 622.266H2163.5C2161.47 633.828 2152.17 640.781 2140.69 640.781C2126.16 640.781 2115.69 629.609 2115.69 611.719C2115.69 593.828 2126.16 582.656 2140.69 582.656C2152.09 582.656 2161.39 589.531 2163.5 601.25H2156.47ZM2179.2 583.438V640H2172.48V583.438H2179.2ZM2207.25 640.859C2195.69 640.859 2187.88 632.188 2187.88 618.984C2187.88 605.781 2195.69 597.031 2207.25 597.031C2218.73 597.031 2226.47 605.781 2226.47 618.984C2226.47 632.188 2218.73 640.859 2207.25 640.859ZM2207.25 634.922C2215.77 634.922 2219.75 627.422 2219.75 618.984C2219.75 610.547 2215.77 602.969 2207.25 602.969C2198.58 602.969 2194.59 610.547 2194.59 618.984C2194.59 627.422 2198.58 634.922 2207.25 634.922ZM2262.09 622.578V597.578H2268.73V640H2262.09V632.812H2261.62C2259.59 637.109 2255.45 640.547 2249.05 640.547C2241 640.547 2235.3 635.312 2235.3 624.531V597.578H2242.02V624.062C2242.02 630.156 2245.84 634.062 2251.23 634.062C2256 634.062 2262.09 630.469 2262.09 622.578ZM2295.53 640.859C2284.98 640.859 2277.48 632.344 2277.48 618.906C2277.48 605.469 2284.98 597.031 2295.61 597.031C2303.81 597.031 2306.47 602.031 2307.88 604.297H2308.34V583.438H2315.14V640H2308.58V633.516H2307.88C2306.39 635.859 2303.66 640.859 2295.53 640.859ZM2296.47 634.844C2304.2 634.844 2308.58 628.281 2308.58 618.75C2308.58 609.375 2304.36 603.047 2296.47 603.047C2288.34 603.047 2284.28 609.922 2284.28 618.75C2284.28 627.812 2288.42 634.844 2296.47 634.844ZM2400.06 583.906V591.641C2400.06 600.547 2400.06 609.531 2397.56 622.422L2391.55 621.719C2394.05 609.453 2394.05 600.312 2394.05 591.641V588.984H2350.92V583.906H2400.06ZM2407.56 631.406V636.484H2344.28V631.406H2359.98V608.516H2366.08V631.406H2377.33V608.516H2383.34V631.406H2407.56ZM2476.7 610.391V615.391H2459.83V624.219H2468.89V646.328H2462.72V629.141H2420.45V624.219H2430.22V615.391H2413.42V610.391H2476.7ZM2445.06 578.594C2460.14 578.516 2469.59 583.516 2469.59 591.797C2469.59 600.156 2460.14 605.156 2445.06 605.078C2429.98 605.156 2420.45 600.156 2420.45 591.797C2420.45 583.516 2429.98 578.516 2445.06 578.594ZM2445.06 583.516C2433.81 583.438 2426.7 586.641 2426.78 591.797C2426.7 597.109 2433.81 600.312 2445.06 600.312C2456.16 600.312 2463.34 597.109 2463.34 591.797C2463.34 586.641 2456.16 583.438 2445.06 583.516ZM2436.39 624.219H2453.81V615.391H2436.39V624.219ZM2559.91 579.062V583.906H2549.2V597.344H2559.67V602.109H2508.81V597.344H2519.28V583.906H2508.58V579.062H2559.91ZM2565.92 607.969V612.891H2502.64V607.969H2565.92ZM2557.8 619.141V634.219H2516.55V640.859H2559.91V645.547H2510.45V629.766H2551.78V623.75H2510.3V619.141H2557.8ZM2525.38 597.344H2543.11V583.906H2525.38V597.344ZM2630.77 576.953V624.297H2624.91V600.234H2615.14V618.281H2609.44V578.281H2615.14V595.156H2624.91V576.953H2630.77ZM2601.16 582.344V601.797H2580.92V612.188C2590.06 612.148 2597.05 611.719 2605.3 610.078L2606 615C2597.02 616.797 2589.67 617.109 2579.52 617.109H2574.98V597.109H2595.3V587.422H2574.83V582.344H2601.16ZM2610.61 622.812C2610.61 631.953 2622.33 639.375 2634.52 641.25L2632.02 646.016C2621.7 644.258 2611.78 638.945 2607.56 631.172C2603.34 638.945 2593.42 644.258 2583.11 646.016L2580.61 641.25C2592.72 639.375 2604.44 631.953 2604.52 622.812V621.016H2610.61V622.812ZM2704.2 611.953V616.953H2640.92V611.953H2669.44V603.906H2647.09V598.828H2657.56V584.219H2646.86V579.141H2698.19V584.219H2687.48V598.828H2697.95V603.906H2675.53V611.953H2704.2ZM2696.47 623.672V645.391H2648.66V623.672H2696.47ZM2654.75 628.438V640.391H2690.45V628.438H2654.75ZM2663.66 598.828H2681.39V584.219H2663.66V598.828Z" fill="white"/>
<defs>
<linearGradient id="paint0_linear_17_114" x1="706.89" y1="498.075" x2="488.044" y2="498.075" gradientUnits="userSpaceOnUse">
<stop offset="0.06" stop-color="#68FD57"/>
<stop offset="0.76" stop-color="#39A0FF"/>
</linearGradient>
<linearGradient id="paint1_linear_17_114" x1="800.532" y1="402.395" x2="800.532" y2="178" gradientUnits="userSpaceOnUse">
<stop offset="0.06" stop-color="#68FD57"/>
<stop offset="0.76" stop-color="#39A0FF"/>
</linearGradient>
<clipPath id="clip0_17_114">
<rect width="2423" height="346.521" fill="white" transform="translate(488 178)"/>
</clipPath>
</defs>
</svg>
