<?xml version="1.0" standalone="no"?>
<!DOCTYPE svg PUBLIC "-//W3C//DTD SVG 20010904//EN"
 "http://www.w3.org/TR/2001/REC-SVG-20010904/DTD/svg10.dtd">
<svg version="1.0" xmlns="http://www.w3.org/2000/svg"
 width="508.000000pt" height="492.000000pt" viewBox="0 0 508.000000 492.000000"
 preserveAspectRatio="xMidYMid meet">

<g transform="translate(0.000000,492.000000) scale(0.100000,-0.100000)"
fill="#000000" stroke="none">
<path d="M715 4771 c-205 -52 -366 -180 -448 -356 -71 -152 -67 -41 -67 -1896
0 -1867 -5 -1739 72 -1897 32 -65 59 -102 122 -165 85 -86 148 -126 266 -169
l65 -23 1530 -3 c1517 -2 1530 -2 1563 18 18 11 37 32 43 48 17 43 5 110 -25
141 l-26 26 -1518 5 c-1661 5 -1539 1 -1644 63 -58 35 -94 70 -132 131 -71
111 -66 -35 -64 1846 l3 1695 28 59 c54 116 138 193 249 228 57 17 133 18
1692 18 1774 0 1695 2 1785 -55 79 -49 153 -141 184 -227 9 -25 13 -413 17
-1585 l5 -1552 21 -28 c51 -68 152 -66 196 5 l23 37 0 1480 c0 814 -3 1523 -7
1575 -13 168 -68 284 -198 411 -58 57 -98 86 -156 115 -154 74 -6 68 -1849 71
-1558 2 -1664 1 -1730 -16z"/>
</g>
</svg>
